<?xml version="1.0" encoding="utf-8"?>
<!-- Generator: Adobe Illustrator 17.1.0, SVG Export Plug-In . SVG Version: 6.00 Build 0)  -->
<!DOCTYPE svg PUBLIC "-//W3C//DTD SVG 1.1//EN" "http://www.w3.org/Graphics/SVG/1.1/DTD/svg11.dtd">
<svg version="1.1" id="Слой_1" xmlns="http://www.w3.org/2000/svg" xmlns:xlink="http://www.w3.org/1999/xlink" x="0px" y="0px"
	 width="20px" height="20px" viewBox="0 0 20 20" enable-background="new 0 0 20 20" xml:space="preserve">
<path fill="#888888" d="M0,10c0,4.4,3.5,7.9,7.9,7.9s7.9-3.5,7.9-7.9s-3.5-7.9-7.9-7.9S0,5.6,0,10L0,10z M7.9,16.6
	c-3.5,0-6.4-2.9-6.4-6.4c0-1.6,0.5-2.9,1.5-4l9.1,9.1C10.8,16,9.5,16.6,7.9,16.6L7.9,16.6z M14.5,10c0,1.6-0.5,2.9-1.5,4L3.9,5
	c1.1-0.9,2.6-1.5,4-1.5C11.5,3.6,14.5,6.5,14.5,10L14.5,10z"/>
</svg>
