<?xml version="1.0" encoding="utf-8"?>
<!-- Generator: Adobe Illustrator 17.1.0, SVG Export Plug-In . SVG Version: 6.00 Build 0)  -->
<!DOCTYPE svg PUBLIC "-//W3C//DTD SVG 1.1//EN" "http://www.w3.org/Graphics/SVG/1.1/DTD/svg11.dtd">
<svg version="1.1" xmlns="http://www.w3.org/2000/svg" xmlns:xlink="http://www.w3.org/1999/xlink" x="0px" y="0px" width="20px"
	 height="120px" viewBox="0 0 20 120" enable-background="new 0 0 20 120" xml:space="preserve">
<g id="Слой_1">
	<polygon fill="#FFDB4D" points="0,17.7 9.9,0 20,17.7 	"/>
	<polygon fill="#FFC720" points="20,18 0,18 0,2.9 9.9,15.9 20,2.9 	"/>
	<rect y="18" fill="#666666" width="20" height="2"/>
	<path fill="#FF0000" d="M12.2,7.8c0-0.1,0-0.2-0.1-0.2l-2-2.8c0-0.1-0.1-0.1-0.2-0.1c-0.1,0-0.1,0-0.2,0.1l-2,2.8
		c0,0.1-0.1,0.1-0.1,0.2c0,0.1,0,0.2,0.1,0.2l2,2.8c0,0.1,0.1,0.1,0.2,0.1c0.1,0,0.1,0,0.2-0.1l2-2.8C12.2,8,12.2,7.9,12.2,7.8
		L12.2,7.8z M12.2,7.8"/>
</g>
<g id="Слой_4">
	<path fill="#DFDAD0" d="M20,61.1c0,2.7-1,5.2-2.9,7.1s-4.4,2.9-7.1,2.9s-5.2-1-7.1-2.9S0,63.8,0,61.1s1-5.2,2.9-7.1
		c1.9-1.9,4.4-2.9,7.1-2.9s5.2,1,7.1,2.9C19,55.9,20,58.4,20,61.1z"/>
	<path fill="#FFC720" stroke="#FFFFFF" stroke-width="1.5" stroke-miterlimit="10" d="M17.5,61.1c0,4.1-3.3,7.4-7.5,7.4
		c-4.1,0-7.5-3.3-7.5-7.4c0-4.1,3.3-7.5,7.5-7.5C14.1,53.7,17.5,57,17.5,61.1z"/>
	<path fill="#FFDB4D" d="M16.5,62.6c-0.9,3.6-4.5,5.8-8.1,4.9l3.1-12.9C15.1,55.5,17.4,59.1,16.5,62.6z"/>
	<path fill="#FFFFFF" d="M13.9,59.9c0.3,0.3,0.3,0.7,0,0.9c-0.1,0.1-0.3,0.2-0.5,0.2c-0.2,0-0.3-0.1-0.5-0.2l-2.3-2.3v7
		c0,0.4-0.3,0.7-0.7,0.7c-0.4,0-0.7-0.3-0.7-0.7v-7L7,60.8c-0.3,0.3-0.7,0.3-0.9,0c-0.3-0.3-0.3-0.7,0-0.9l3.4-3.4
		c0.1-0.1,0.3-0.2,0.5-0.2c0.2,0,0.3,0.1,0.5,0.2L13.9,59.9z M13.9,59.9"/>
</g>
<g id="Слой_9">
	<g>
		<path fill="#FFDB4D" d="M5.3,117.2l2.2,0.7L6.8,120l-2.2-0.7L5.3,117.2z M5.3,117.2"/>
		<path fill="#666666" d="M11.2,114.4l-0.4,1l-4.2-0.6l0.9-2.4L11.2,114.4z M11.2,114.4"/>
		<path fill="#666666" d="M8.2,112.7l-0.9,2.4l-3-1.7l0.4-1L8.2,112.7z M8.2,112.7"/>
		<path fill="#FFC720" d="M15.3,101.8l-2.8-0.9l-3,6L8,113.4l4,1.3L15.3,101.8z M15.3,101.8"/>
		<path fill="#84817C" d="M7.6,114.4l3.3,1c0,0-1.9,0.9-2.6,2.7l-1.8-0.6l-0.2-1.8L7.6,114.4z M7.6,114.4"/>
		<path fill="#FFDB4D" d="M9.7,100L4,112.1l4,1.3l4.6-12.5L9.7,100z M9.7,100"/>
		<path fill="#96928C" d="M4.3,113.4l3.3,1l-1.1,3.2L4.6,117C5.2,115.2,4.3,113.4,4.3,113.4L4.3,113.4z M4.3,113.4"/>
	</g>
</g>
</svg>
