<?xml version="1.0" encoding="utf-8"?>
<!-- Generator: Adobe Illustrator 17.1.0, SVG Export Plug-In . SVG Version: 6.00 Build 0)  -->
<!DOCTYPE svg PUBLIC "-//W3C//DTD SVG 1.1//EN" "http://www.w3.org/Graphics/SVG/1.1/DTD/svg11.dtd">
<svg version="1.1" id="Слой_1" xmlns="http://www.w3.org/2000/svg" xmlns:xlink="http://www.w3.org/1999/xlink" x="0px" y="0px"
	 width="65px" height="53px" viewBox="0 0 65 53" enable-background="new 0 0 65 53" xml:space="preserve">
<g>
	<path fill="#FFFFFF" d="M0.1,16.3v28.6c0,4.4,3.5,7.9,7.9,7.9h49c4.4,0,7.9-3.5,7.9-7.9V16.3c0-4.2-3.4-7.5-7.5-7.5H46.8l-0.3-1.1
		c-1-4.4-4.9-7.5-9.4-7.5h-9.4c-4.5,0-8.4,3.1-9.4,7.5l-0.3,1.1H7.6C3.5,8.8,0.1,12.2,0.1,16.3z M19.4,12c0.8,0,1.4-0.5,1.6-1.3
		l0.5-2.4c0.7-2.9,3.3-5,6.3-5h9.4c3,0,5.6,2,6.3,5l0.5,2.4c0.2,0.7,0.8,1.3,1.6,1.3h11.8c2.4,0,4.3,1.9,4.3,4.3v28.6
		c0,2.6-2.1,4.7-4.7,4.7H8c-2.6,0-4.7-2.1-4.7-4.7V16.3c0-2.4,1.9-4.3,4.3-4.3L19.4,12L19.4,12z"/>
	<path fill="#FFFFFF" d="M32.5,44.5c7.5,0,13.6-6.1,13.6-13.6S40,17.3,32.5,17.3s-13.6,6.1-13.6,13.6S25,44.5,32.5,44.5z M32.5,20.5
		c5.7,0,10.4,4.7,10.4,10.4s-4.7,10.4-10.4,10.4s-10.4-4.7-10.4-10.4S26.8,20.5,32.5,20.5z"/>
</g>
</svg>
